<?xml version="1.0" encoding="utf-8"?>
<!-- Generator: Adobe Illustrator 20.1.0, SVG Export Plug-In . SVG Version: 6.00 Build 0)  -->
<svg version="1.1"
	 id="svg2" inkscape:version="0.48.4 r9939" sodipodi:docname="book_sans.svg" xmlns:cc="http://creativecommons.org/ns#" xmlns:dc="http://purl.org/dc/elements/1.1/" xmlns:inkscape="http://www.inkscape.org/namespaces/inkscape" xmlns:rdf="http://www.w3.org/1999/02/22-rdf-syntax-ns#" xmlns:sodipodi="http://sodipodi.sourceforge.net/DTD/sodipodi-0.dtd" xmlns:svg="http://www.w3.org/2000/svg"
	 xmlns="http://www.w3.org/2000/svg" xmlns:xlink="http://www.w3.org/1999/xlink" x="0px" y="0px" viewBox="0 0 32 32"
	 style="enable-background:new 0 0 32 32;" xml:space="preserve">
<style type="text/css">
	.st0{fill:none;}
</style>
<sodipodi:namedview  bordercolor="#666666" borderopacity="1" gridtolerance="10" guidetolerance="10" id="namedview3020" inkscape:current-layer="svg2" inkscape:cx="16" inkscape:cy="16" inkscape:pageopacity="0" inkscape:pageshadow="2" inkscape:window-height="480" inkscape:window-maximized="0" inkscape:window-width="640" inkscape:window-x="53" inkscape:window-y="24" inkscape:zoom="7.375" objecttolerance="10" pagecolor="#ffffff" showgrid="false">
	</sodipodi:namedview>
<g id="background">
	<rect id="rect3013" x="1" class="st0" width="32" height="32"/>
</g>
<path id="path3018" d="M27,0v2h-2v2h2v28H3c0,0-2,0-2-2V3c0,0,0,0,0,0c0-1.4,0.8-2.3,1.6-2.6C3.3,0,3.9,0,4,0H27 M4,4C4,4,4,4,4,4
	h19V2H4c0,0,0,0-0.1,0C3.7,2,3.6,2.1,3.4,2.1C3.2,2.3,3,2.4,3,3c0,0.5,0.1,0.6,0.3,0.7C3.4,3.9,3.7,4,3.9,4C3.9,4,4,4,4,4 M5,30h20
	V6H5L5,30"/>
</svg>
